<svg id="Layer_1" data-name="Layer 1" xmlns="http://www.w3.org/2000/svg" xmlns:xlink="http://www.w3.org/1999/xlink" viewBox="0 0 1419.25 1467.75"><defs><style>.cls-1,.cls-12,.cls-17,.cls-18,.cls-20,.cls-29,.cls-32,.cls-34,.cls-41,.cls-49,.cls-53,.cls-56{fill:none;}.cls-2{clip-path:url(#clip-path);}.cls-3,.cls-8{fill:#fff;}.cls-3{stroke:#fcd01d;stroke-width:5px;}.cls-18,.cls-20,.cls-3,.cls-32,.cls-34{stroke-linecap:round;stroke-linejoin:round;}.cls-4{fill:url(#linear-gradient);}.cls-5{fill:url(#linear-gradient-2);}.cls-6{fill:#0061ff;fill-opacity:0.61;}.cls-7{fill:#efefef;}.cls-9{fill:url(#linear-gradient-3);}.cls-10{fill:#ffcd48;}.cls-11{fill:#00e2b8;}.cls-12,.cls-18,.cls-20,.cls-32,.cls-34{stroke:#3c2e5b;}.cls-12,.cls-17,.cls-41,.cls-49,.cls-56{stroke-miterlimit:51.61;}.cls-12,.cls-17,.cls-32,.cls-41,.cls-49{stroke-width:5.16px;}.cls-13{fill:url(#linear-gradient-4);}.cls-14{fill:url(#linear-gradient-5);}.cls-15{fill:#f7aa92;}.cls-16{fill:url(#linear-gradient-6);}.cls-17,.cls-29{stroke:#f7aa92;}.cls-18{stroke-width:10.32px;}.cls-19{fill:#393e4f;}.cls-20{stroke-width:10.32px;}.cls-21{fill:url(#linear-gradient-7);}.cls-22{fill:url(#linear-gradient-8);}.cls-23{fill:url(#linear-gradient-9);}.cls-24{fill:url(#linear-gradient-10);}.cls-25{fill:url(#linear-gradient-11);}.cls-26{fill:url(#linear-gradient-12);}.cls-27{fill:url(#linear-gradient-13);}.cls-28{fill:url(#linear-gradient-14);}.cls-29{stroke-miterlimit:51.61;stroke-width:5.16px;}.cls-30{fill:url(#linear-gradient-15);}.cls-31{fill:url(#linear-gradient-16);}.cls-33{fill:url(#linear-gradient-17);}.cls-34{stroke-width:5.16px;}.cls-35{fill:url(#linear-gradient-18);}.cls-36{fill:url(#linear-gradient-19);}.cls-37{fill:url(#linear-gradient-20);}.cls-38{fill:url(#linear-gradient-21);}.cls-39{fill:url(#linear-gradient-22);}.cls-40{fill:url(#linear-gradient-23);}.cls-41,.cls-53{stroke:#086cff;}.cls-42{fill:url(#linear-gradient-24);}.cls-43{fill:url(#linear-gradient-25);}.cls-44{fill:url(#linear-gradient-26);}.cls-45{fill:url(#linear-gradient-27);}.cls-46{fill:url(#linear-gradient-28);}.cls-47{fill:url(#linear-gradient-29);}.cls-48{fill:url(#linear-gradient-30);}.cls-49,.cls-56{stroke:#fff7ed;}.cls-50{fill:url(#linear-gradient-31);}.cls-51{fill:#fff7ed;}.cls-52{fill:url(#linear-gradient-32);}.cls-53{stroke-miterlimit:51.61;stroke-width:5.16px;}.cls-54{fill:url(#linear-gradient-33);}.cls-55{fill:url(#linear-gradient-34);}.cls-56{stroke-width:2.58px;}.cls-57{fill:url(#linear-gradient-35);}</style><clipPath id="clip-path" transform="translate(-37.62 -29.44)"><rect class="cls-1" x="-1070.97" y="-119.66" width="2658.06" height="1729.03"/></clipPath><linearGradient id="linear-gradient" x1="0.13" y1="1600.06" x2="0.88" y2="1600.06" gradientTransform="matrix(-222.34, 2341.13, 2341.13, 222.34, -3744795.83, -355822.84)" gradientUnits="userSpaceOnUse"><stop offset="0" stop-color="#3567c6"/><stop offset="1" stop-color="#3c2e5b"/></linearGradient><linearGradient id="linear-gradient-2" x1="0.26" y1="1599.85" x2="1" y2="1599.85" gradientTransform="matrix(382, -670.56, -670.56, -382, 1073528.14, 612829.06)" gradientUnits="userSpaceOnUse"><stop offset="0" stop-color="#3567c6"/><stop offset="0.62" stop-color="#ffb4d1"/><stop offset="1" stop-color="#ffa340"/></linearGradient><linearGradient id="linear-gradient-3" x1="0.17" y1="1599.88" x2="0.91" y2="1599.88" gradientTransform="matrix(1068.11, -1220.7, -1220.7, -1068.11, 1953253.37, 1710457.87)" xlink:href="#linear-gradient-2"/><linearGradient id="linear-gradient-4" x1="0.21" y1="1599.58" x2="0.96" y2="1599.58" gradientTransform="matrix(11.39, -352.94, -352.94, -11.39, 565573.52, 19693.27)" gradientUnits="userSpaceOnUse"><stop offset="0" stop-color="#ff6240"/><stop offset="1" stop-color="#ffa340"/></linearGradient><linearGradient id="linear-gradient-5" x1="0.62" y1="1599.51" x2="1.36" y2="1599.51" gradientTransform="matrix(169.24, -144.17, -144.17, -169.24, 231431.26, 272009.75)" gradientUnits="userSpaceOnUse"><stop offset="0" stop-color="#f7aa92"/><stop offset="1" stop-color="#fbc4b2"/></linearGradient><linearGradient id="linear-gradient-6" x1="0.48" y1="1600.43" x2="1.23" y2="1600.43" gradientTransform="matrix(91.59, 264.2, 264.2, -91.59, -421890.39, 147401.77)" xlink:href="#linear-gradient-5"/><linearGradient id="linear-gradient-7" x1="0.22" y1="1600.46" x2="0.96" y2="1600.46" gradientTransform="matrix(-103.4, 343.87, 343.87, 103.4, -549264.54, -164719.36)" xlink:href="#linear-gradient"/><linearGradient id="linear-gradient-8" x1="0.22" y1="1600.52" x2="0.96" y2="1600.52" gradientTransform="matrix(-103.4, 343.87, 343.87, 103.4, -549345.38, -164743.91)" xlink:href="#linear-gradient"/><linearGradient id="linear-gradient-9" x1="0.03" y1="1600.51" x2="0.77" y2="1600.51" gradientTransform="matrix(-30.36, 307.4, 307.4, 30.36, -491001.71, -47470.61)" xlink:href="#linear-gradient"/><linearGradient id="linear-gradient-10" x1="0.03" y1="1600.43" x2="0.77" y2="1600.43" gradientTransform="matrix(-30.36, 307.4, 307.4, 30.36, -490908.56, -47461.24)" xlink:href="#linear-gradient"/><linearGradient id="linear-gradient-11" x1="0.77" y1="1599.66" x2="1.51" y2="1599.66" gradientTransform="matrix(129.14, 0, 0, -129.14, 1062.12, 207650.58)" xlink:href="#linear-gradient-5"/><linearGradient id="linear-gradient-12" x1="2.65" y1="1598.12" x2="3.39" y2="1598.12" gradientTransform="matrix(36.07, 0, 0, -36.07, 1077.85, 58644.06)" xlink:href="#linear-gradient-5"/><linearGradient id="linear-gradient-13" x1="3.07" y1="1597.97" x2="3.81" y2="1597.97" gradientTransform="matrix(28.39, 0, 0, -28.39, 1110.18, 46406.27)" xlink:href="#linear-gradient-5"/><linearGradient id="linear-gradient-14" x1="1.79" y1="1599.05" x2="2.54" y2="1599.05" gradientTransform="matrix(54.21, 0, 0, -54.21, 1071.24, 87735.33)" xlink:href="#linear-gradient-5"/><linearGradient id="linear-gradient-15" x1="2.84" y1="1598.06" x2="3.58" y2="1598.06" gradientTransform="matrix(28.39, 0, 0, -28.39, 1136, 46416.04)" xlink:href="#linear-gradient-5"/><linearGradient id="linear-gradient-16" x1="2.6" y1="1598.14" x2="3.35" y2="1598.14" gradientTransform="matrix(28.39, 0, 0, -28.39, 1161.82, 46426.71)" xlink:href="#linear-gradient-5"/><linearGradient id="linear-gradient-17" x1="0.87" y1="1600.01" x2="1.61" y2="1600.01" gradientTransform="matrix(113.1, 0, 0, -113.1, 1066.27, 182168.28)" xlink:href="#linear-gradient-5"/><linearGradient id="linear-gradient-18" x1="0.36" y1="1600.08" x2="0.57" y2="1600.08" gradientTransform="matrix(1080.78, -1236.32, -1236.32, -1080.78, 1978099.51, 1730367.14)" gradientUnits="userSpaceOnUse"><stop offset="0" stop-color="#4328ad"/><stop offset="1" stop-color="#6bbcf0"/></linearGradient><linearGradient id="linear-gradient-19" x1="0.3" y1="1600.08" x2="0.52" y2="1600.08" gradientTransform="matrix(977.09, -1116.68, -1116.68, -977.09, 1786775.67, 1564319.18)" xlink:href="#linear-gradient-2"/><linearGradient id="linear-gradient-20" x1="0.36" y1="1600.05" x2="0.57" y2="1600.05" gradientTransform="matrix(1080.78, -1236.31, -1236.31, -1080.78, 1978050.81, 1730331.83)" xlink:href="#linear-gradient-18"/><linearGradient id="linear-gradient-21" x1="0.3" y1="1600.07" x2="0.52" y2="1600.07" gradientTransform="matrix(977.09, -1116.68, -1116.68, -977.09, 1786764.29, 1564306.34)" xlink:href="#linear-gradient-2"/><linearGradient id="linear-gradient-22" x1="0.3" y1="1600.05" x2="0.52" y2="1600.05" gradientTransform="matrix(977.09, -1116.67, -1116.67, -977.09, 1786726.28, 1564280.36)" xlink:href="#linear-gradient-2"/><linearGradient id="linear-gradient-23" x1="-0.24" y1="1600.35" x2="0.26" y2="1600.35" gradientTransform="matrix(977.09, -1116.68, -1116.68, -977.09, 1787195.64, 1564683.77)" xlink:href="#linear-gradient-2"/><linearGradient id="linear-gradient-24" x1="-0.1" y1="1600.01" x2="0.33" y2="1600.01" gradientTransform="matrix(1080.78, -1236.32, -1236.32, -1080.78, 1977975.2, 1730264.74)" xlink:href="#linear-gradient-18"/><linearGradient id="linear-gradient-25" x1="-0.1" y1="1600.02" x2="0.33" y2="1600.02" gradientTransform="matrix(1080.78, -1236.32, -1236.32, -1080.78, 1977997.06, 1730283.86)" xlink:href="#linear-gradient-18"/><linearGradient id="linear-gradient-26" x1="-0.1" y1="1600" x2="0.33" y2="1600" gradientTransform="matrix(1080.78, -1236.32, -1236.32, -1080.78, 1977963.41, 1730254.44)" xlink:href="#linear-gradient-18"/><linearGradient id="linear-gradient-27" x1="0.3" y1="1600.12" x2="0.86" y2="1600.12" gradientTransform="matrix(977.09, -1116.67, -1116.67, -977.09, 1786856.02, 1564393.88)" xlink:href="#linear-gradient-2"/><linearGradient id="linear-gradient-28" x1="0.3" y1="1600.11" x2="0.86" y2="1600.11" gradientTransform="matrix(977.09, -1116.67, -1116.67, -977.09, 1786837.84, 1564377.97)" xlink:href="#linear-gradient-2"/><linearGradient id="linear-gradient-29" x1="0.3" y1="1600.1" x2="0.86" y2="1600.1" gradientTransform="matrix(977.09, -1116.68, -1116.68, -977.09, 1786827.98, 1564362.07)" xlink:href="#linear-gradient-2"/><linearGradient id="linear-gradient-30" x1="-0.12" y1="1600.12" x2="0.39" y2="1600.12" gradientTransform="matrix(1080.78, -1236.32, -1236.32, -1080.78, 1978283.05, 1730527.59)" xlink:href="#linear-gradient-18"/><linearGradient id="linear-gradient-31" x1="-0.29" y1="1600.23" x2="0.16" y2="1600.23" gradientTransform="matrix(977.09, -1116.67, -1116.67, -977.09, 1786980.41, 1564500.96)" xlink:href="#linear-gradient-2"/><linearGradient id="linear-gradient-32" x1="-0.29" y1="1600.23" x2="0.16" y2="1600.23" gradientTransform="matrix(977.09, -1116.67, -1116.67, -977.09, 1786980.41, 1564500.96)" xlink:href="#linear-gradient-2"/><linearGradient id="linear-gradient-33" x1="-0.2" y1="1600.19" x2="0.25" y2="1600.19" gradientTransform="matrix(1080.78, -1236.31, -1236.31, -1080.78, 1978279.36, 1730531.64)" xlink:href="#linear-gradient-18"/><linearGradient id="linear-gradient-34" x1="-0.07" y1="1600.38" x2="0.3" y2="1600.38" gradientTransform="matrix(1080.77, -1236.31, -1236.31, -1080.77, 1978572.19, 1730779.31)" xlink:href="#linear-gradient-18"/><linearGradient id="linear-gradient-35" x1="-0.16" y1="1600.44" x2="0.21" y2="1600.44" gradientTransform="matrix(977.08, -1116.67, -1116.67, -977.08, 1787308.64, 1564781.6)" xlink:href="#linear-gradient-2"/></defs><title>client-success-illustration</title><g id="OBJECTS"><g class="cls-2"><path id="IDN513" class="cls-3" d="M399.18,740.7l-5.46.78-2.34-2.34.78-1.57,1.56-1.56,3.12-.78,7.81-3.9,7.8-17.17h.78v3.12l-.78,5.46v4.69l-.78,1.56-2.34,1.56-.78,1.56-.78,5.46-3.12,1.56-5.47,1.57ZM101,924.13l2.34-3.9,3.91-10.15.78-5.46v-5.47l-.78-5.46-2.34-10.93-3.13-4.68-3.9-4.69-19.51-8.58-3.91-5.47-4.68-3.12-3.12-1.56L65.1,853.1,62,844.51l-.78-4.68v-1.56l-.78-1.56-2.34-1.56-7.8-3.91-1.57-.78L44,828.12l-3.9-7v-1.57h2.34l3.9-1.56,7,3.13,2.34-1.57L55,818l-.78-3.9.78-1.56,3.9,2.34L62,816.41l4.69-2.34,3.12,2.34.78,1.56.78,3.13,1.56.78,2.34.78h4.69l1.56-.78h1.56l3.12-1.57,2.34-.78,1.57.78.78,1.57h1.56L94,821.1l4.68,3.12,13.27,2.34,4.68,3.12,2.35.78,5.46-3.12h3.12l3.13.78,7,3.12,3.12,1.56,23.42,3.13,11.71-.78h1.56l3.12.78h1.56l1.56-.78.79-1.57v-.78l-2.35-1.56,2.35-1.56,7-1.56,3.12-3.12,18.74-7,5.46-.78,2.34-2.34,3.91-4.68,5.46-2.34,11.71-3.13,3.9-3.12,2.34-6.24,3.13-11.71,3.12-4.69,1.56-1.56,2.34-1.56,3.12-.78,3.91-.78,10.92.78,3.13-.78,1.56-.78,2.34-2.34H286l1.56.78,1.56,3.12,2.35.78,2.34-1.56,2.34-3.12.78-3.9.78-3.13L295.37,761l-2.34-.78-6.25.78-3.12-2.34V754l.78-4.69,1.56-2.34,8.59-7,1.56-1.57,1.56-1.56,12.49,3.13,4.68-.78,2.34-2.35,3.91-4.68,3.12-1.56,7-.78,3.13-1.56,2.34-3.91-.78-3.12-2.34-3.12-1.57-3.12.78-4.69,1.57-2.34,17.17-13.27,2.34-3.12,3.12,1.56.78-.78v-7l1.56-1.57,3.91-1.56,3.12-.78,1.56,1.56v7l1.56,2.34,3.12.78h3.91l10.93-.78h4.68l.78,2.34-2.34,6.25v7.8l3.9,3.91,4.68,3.12,3.91,3.12,1.56,6.25L400,729.77l-7.8,3.12L386.69,736,382,742.26l-3.12,6.24L368,778.16l-7.8,14.05-5.47,6.25-5.46,5.46-.78,1.56-2.34,3.91V811l-.79,1.56-6.24,3.12-5.46.78L332.05,818l-.78,1.56-3.12,3.91-.78.78-4.68,1.56-3.12,2.34-6.25,5.46-5.46,4.69-2.34,2.34L304,845.29l-2.34,3.13-.78,2.34v3.9L298.49,857l-6.24,5.47-.78,3.12-1.57,1.56-.78,1.56.78,1.56,1.57,1.56v4.69l-.78.78-3.13-.78H286l-.78.78-7,9.36-.78,2.35,2.34,1.56v1.56l-3.13.78-1.56,2.34L272,901.49l-4.68-1.56-3.9,1.56-3.91,2.35-3.12.78-3.9.78-4.69,3.9L226.68,914l-8.59.78-6.24-3.12-2.34,1.56-4.69,4.69-4.68-1.56h-1.56l-1.56.78-3.13,2.34h-1.56l-10.92.78-3.91.78-7,2.34h-7l-3.12,1.56-3.12,1.56h-1.56l-3.91-1.56h-5.46L140,927.25l-5.46.78L133,929.6l-2.34,2.34h-.78l-1.56-.78-5.47-4.69-2.34-.78-18-1.56H101Zm286.47-242h-.78l-.78-1.56-.78-1.56-.78-2.34-.78-3.12-.78-3.13,1.56-3.12.78-.78,1.56,1.56,1.56,2.34,3.13,1.57.78,1.56v2.34L388.25,679l-.78,3.12ZM432,617.37l-.78,2.34-.79.78h-1.56l-3.12,1.56-.78.78-.78.78-1.56,1.56-.78.78h-1.56l-1.56-1.56.78-2.34.78-.78,2.34-2.34-.78-1.56.78-1.57,1.56,1.57.78-.78,1.56.78,2.34.78,2.34-2.35.79,1.57Zm7-35.91-4.68,3.12L428.84,583l-3.9-3.9v-4.69l2.34-1.56,2.34-1.56h3.13l3.12.78,3.12,1.56.78,2.35-.78,5.46Zm-5.46-50.74-1.56.78h-3.13l-1.56-2.34L426.5,526v-3.12l-.78-2.35-2.34-5.46-.78-2.34.78-2.34,3.12-6.25,1.56-2.34,2.34-1.56h2.35l3.12,1.56,1.56,1.56,1.56,2.34v2.35l-1.56,2.34-4.68,3.9-1.56,2.34-.78,2.34.78,2.35,2.34,3.12.78,2.34v1.56l-.78,2.34Zm35.12-150.65,2.34.78h.78v3.91l1.57,3.9,1.56,3.9v2.34l-.78,1.56-6.25,4.69h-.78l-2.34-.78-.78-.78V398l-.78-2.35-3.9-1.56-7.81-2.34-3.12-2.34v-3.12l.78-7.81,1.56-2.34v-5.46l-.78-1.57-3.9-1.56-8.59-7.8-2.34-2.34-1.56-2.35-.78-3.9.78-3.12,3.9-4.68,6.25.78,5.46,3.9L453,352l6.25,9.37.78,3.12-.78,3.12.78,2.34,3.12,3.13,1.56,1.56,1.56,4.68,2.34.78Zm205.29-38.25-4.68,2.35-7.81-7-4.68-8.59,1.56-5.46,5.47,2.34,5.46,3.12,3.9,4.69,3.91,6.24-3.13,2.34Zm-24.19-11.7h-3.13l-2.34-14.05.78-5.47-3.12-3.9-3.9-2.34-.78-4.69-1.57-5.46.79-3.12,4.68,2.34L643.5,302l7,7.81,2.34,2.34v3.12l-2.34,3.91-2.35,3.9,1.56,7Zm30.44-115.53.78,2.34.78,3.91-.78,3.9-1.56,3.12-.78,3.9-.78,3.91,1.56,6.24,5.46,4.68L688,250.5,678.63,263l-9.37,8.58v20.3l-2.34,3.9-6.25,3.9-7.8-3.12-6.25.78-2.34-4.68,2.34-4.69,2.35-3.12,5.46-3.12,6.24-14.83,7-6.25-1.56-3.12-2.34-.78-11.71-3.12v-3.9l.78-3.91-2.34-7.8-.78-7,1.56-4.68,6.24-8.59V213l-.78-3.9-.78-1.56,2.34-1.57,3.91-.78H670l2.34,1.56.78,3.91,1.56,2.34,2.35.78h1.56l1.56.78Zm46-43.71-1.56,1.56-2.34-1.56v-3.12l.78-.78,1.56.78ZM633.35,34.28l-.78.78-.78-1.56,1.56-1.56.78.78-.78,1.56Z" transform="translate(-37.62 -29.44)"/><path class="cls-4" d="M744.46,1066.27c-15.83.25-29.5,14.76-29.25,30.59l-.15,353,612.93.25.16-353c-.25-15.83-13-29.33-30.43-31Z" transform="translate(-37.62 -29.44)"/><rect class="cls-5" x="708.82" y="1114.03" width="552.55" height="276.56"/><path class="cls-6" d="M1361.07,1494.6H681.6a44,44,0,0,1-44-44h767.49a44,44,0,0,1-44,44" transform="translate(-37.62 -29.44)"/><path class="cls-7" d="M1080.65,1465.47H956.9A14.87,14.87,0,0,1,942,1450.6h153.49a14.87,14.87,0,0,1-14.87,14.87" transform="translate(-37.62 -29.44)"/><path class="cls-8" d="M1298.91,1143.6H746.32v-15.35a15.35,15.35,0,0,1,15.35-15.35h521.89a15.35,15.35,0,0,1,15.35,15.35Z" transform="translate(-37.62 -29.44)"/><circle class="cls-9" cx="731.73" cy="1098.31" r="7.24"/><path class="cls-10" d="M800,1128.25a7.68,7.68,0,1,1-7.67-7.67,7.67,7.67,0,0,1,7.67,7.67" transform="translate(-37.62 -29.44)"/><path class="cls-11" d="M819.23,1128.25a7.68,7.68,0,1,1-7.67-7.67,7.68,7.68,0,0,1,7.67,7.67" transform="translate(-37.62 -29.44)"/><path class="cls-12" d="M621.32,1494.6h835.55" transform="translate(-37.62 -29.44)"/><path class="cls-12" d="M585.8,1494.6h27.85" transform="translate(-37.62 -29.44)"/><path class="cls-13" d="M903.59,1189.67c-63.57,0-115.14,51.45-115.09,115l0,115.32,460.49-.12,0-115.05c0-63.57-51.45-115.14-115-115.09Z" transform="translate(-37.62 -29.44)"/><path class="cls-14" d="M961.2,1105.77l-.06,84.3,57.75,56.33,57.38-56.26.08-84.54Z" transform="translate(-37.62 -29.44)"/><path class="cls-15" d="M961.33,1105.68v21.46c0,20.75,34.25,41.62,57.56,41.62s57.56-17.28,57.56-41.62v-21.46Z" transform="translate(-37.62 -29.44)"/><path class="cls-15" d="M1065.64,1047.48a26.86,26.86,0,1,0,27.1-26.62,26.87,26.87,0,0,0-27.1,26.62" transform="translate(-37.62 -29.44)"/><path class="cls-15" d="M971.91,1047.48a26.86,26.86,0,1,1-27.1-26.62,26.87,26.87,0,0,1,27.1,26.62" transform="translate(-37.62 -29.44)"/><path class="cls-16" d="M945.07,992.17l0,73.7a73.71,73.71,0,1,0,147.41,0l0-73.71a73.71,73.71,0,0,0-147.41.06Z" transform="translate(-37.62 -29.44)"/><path class="cls-17" d="M1023.69,1029.25v9.84a4.92,4.92,0,0,1-9.83,0v-25.16a31.32,31.32,0,0,0-4.8-16.71" transform="translate(-37.62 -29.44)"/><path class="cls-18" d="M1074.14,991.88s-14.27-20.55-34.72-1" transform="translate(-37.62 -29.44)"/><path class="cls-19" d="M1060.62,1019.71H1053V1012a3.84,3.84,0,1,1,7.67,0Z" transform="translate(-37.62 -29.44)"/><path class="cls-20" d="M963.42,991.88s14.25-20.54,34.7-1" transform="translate(-37.62 -29.44)"/><path class="cls-19" d="M976.93,1019.71h7.68V1012a3.84,3.84,0,0,0-7.68,0Z" transform="translate(-37.62 -29.44)"/><path class="cls-8" d="M1018.89,1101.15a15.35,15.35,0,0,1-15.35-15.35v-23h30.7v23a15.35,15.35,0,0,1-15.35,15.35" transform="translate(-37.62 -29.44)"/><path class="cls-21" d="M976.88,924.58s-25.6-28.89-25.74-13.6c0,22.3,25.94,20.35,25.94,20.35s1.41,27.75,32.1,31.4c18.82,2.31,12.33-8.56,4.56-17,12.65,10.77,36.68,26.36,67.85,26.54,0,0-2.15,35.87,11.07,48.49l21-59.75a42.19,42.19,0,0,0-4.83-37.7c-14.29-20.18-37.42-28.53-61.08-28.68C1019.91,894.59,991.54,906.41,976.88,924.58Z" transform="translate(-37.62 -29.44)"/><path class="cls-22" d="M944.7,959.23l.14,61.65c15.37-.11,9.26-43.77,9.26-43.77,22.89-.09,25.57-35,25.57-35l-2.6-10.82c-2.46-.18-4.4-.21-6.34-.24C940.65,931,944.7,959.23,944.7,959.23Z" transform="translate(-37.62 -29.44)"/><path class="cls-23" d="M949.21,1258.67l45.33-20.15,24.42,8L961.17,1190Z" transform="translate(-37.62 -29.44)"/><path class="cls-24" d="M1018.9,1246.57l24.23-7.92,45.49,20.16-12.1-68.78Z" transform="translate(-37.62 -29.44)"/><path class="cls-25" d="M1165,1061.56a34.35,34.35,0,0,0-3.27,18.54,41,41,0,0,0,45,36.87,7.36,7.36,0,0,1,10.47-1l.86.67a43.86,43.86,0,0,0,39.27-48l-1.15-10.85-76.52-27Z" transform="translate(-37.62 -29.44)"/><path class="cls-26" d="M1178.83,959.55a6.19,6.19,0,0,0-5.53,6.73l8.5,85.33,18.29-1.82-6.73-67.42a35.58,35.58,0,0,0-9.44-20.89,6.12,6.12,0,0,0-4.5-2Z" transform="translate(-37.62 -29.44)"/><path class="cls-15" d="M1246,1047.52a9.19,9.19,0,0,1-10-8.23h0l-.91-9.14a9.19,9.19,0,0,1-18.28,1.82h0l-.91-9.14a9.19,9.19,0,0,1-18.29,1.83l3.19,32a9.18,9.18,0,0,0,10,8.23l9.14-.91a9.19,9.19,0,0,0,10,8.23l9.15-.91a9.19,9.19,0,0,0,18.29-1.82l-3.19-32a9.19,9.19,0,0,1-8.24,10" transform="translate(-37.62 -29.44)"/><path class="cls-27" d="M1205.59,1012.31a9.18,9.18,0,0,0-8.23,10.05l2.74,27.43a9.19,9.19,0,0,0,18.28-1.82l-2.74-27.44a9.19,9.19,0,0,0-9.12-8.28A7.26,7.26,0,0,0,1205.59,1012.31Z" transform="translate(-37.62 -29.44)"/><path class="cls-28" d="M1184.2,1035.08l-13.34,16.33a11.07,11.07,0,0,0,1.57,15.59l8.39,6.9a5.64,5.64,0,0,0,7.94-.81l16.8-20.52a13.79,13.79,0,0,0-1.93-19.38,13.65,13.65,0,0,0-8.75-3.15A13.87,13.87,0,0,0,1184.2,1035.08Z" transform="translate(-37.62 -29.44)"/><path class="cls-29" d="M1175.34,1045.94l8.87-10.84a13.79,13.79,0,0,1,21.34,17.47l-12.49,15.23" transform="translate(-37.62 -29.44)"/><path class="cls-30" d="M1224.78,1019.62a9.21,9.21,0,0,0-8.23,10.07l2.75,27.42a9.19,9.19,0,0,0,18.28-1.82l-2.75-27.44a9.17,9.17,0,0,0-9.12-8.28C1225.4,1019.57,1225.1,1019.59,1224.78,1019.62Z" transform="translate(-37.62 -29.44)"/><path class="cls-31" d="M1244,1027a9.17,9.17,0,0,0-8.23,10l2.74,27.42a9.19,9.19,0,0,0,18.29-1.82l-2.75-27.42a9.18,9.18,0,0,0-9.12-8.3A7.41,7.41,0,0,0,1244,1027Z" transform="translate(-37.62 -29.44)"/><path class="cls-17" d="M1201,1058.07l-9,11s19.61,4,21.85,26.46" transform="translate(-37.62 -29.44)"/><path class="cls-32" d="M1164.67,1282.07s-17.72-1.37-17.72,30V1419.9" transform="translate(-37.62 -29.44)"/><path class="cls-33" d="M1164.67,1282.06a41.41,41.41,0,0,0,41.37,41.7h1.26a41.35,41.35,0,0,0,41.46-41.37V1095.54l-82.66-6.64Z" transform="translate(-37.62 -29.44)"/><path class="cls-34" d="M1168.36,1334.42s34.85,35.8,67.1,6.3" transform="translate(-37.62 -29.44)"/><path class="cls-32" d="M890.6,1419.9v-35.23s-26.74-.25-45.11-32.29" transform="translate(-37.62 -29.44)"/><path class="cls-35" d="M471.12,366.2l-.72.29L470.28,383l.75.19c.53.46,1-.06,1-.55l.16-16.05a.65.65,0,0,0-.79-.69Z" transform="translate(-37.62 -29.44)"/><path class="cls-36" d="M460,371.31l0,6.61,10.35,5.1.12-16.36Z" transform="translate(-37.62 -29.44)"/><path class="cls-37" d="M451.91,372.53l0,4.19c0,.49.59,1.44,1.31,1.15h0l4.46.19,1.47-.1.76.2,0-6.91-6.65.2h0C452.56,371.25,452.1,371.78,451.91,372.53Z" transform="translate(-37.62 -29.44)"/><path class="cls-38" d="M455.74,384.78c.27.65.74,1.07,1.19,1l1.57.11a1.51,1.51,0,0,0,1.45-1.65l-2.19-6.1-4.47-.15Z" transform="translate(-37.62 -29.44)"/><path class="cls-39" d="M450.17,374.05l.29,1.09c.06.89.57,1.75,1.45,1.69l.15-4.47h0A2.46,2.46,0,0,0,450.17,374.05Z" transform="translate(-37.62 -29.44)"/><path class="cls-40" d="M310.11,781.75c-.49.56-1.54.63-1.05.07-4.26-8.67-17.12-12-19.07-1.89-2.87,12.3,16,26.83,19.28,28.71h0c3-2.3,22.56-16.76,19.14-28.64-.84-4.68-3.56-6.08-7.26-6.36C317,773.92,311.37,776.93,310.11,781.75Z" transform="translate(-37.62 -29.44)"/><path class="cls-41" d="M86.84,844.74l-17.1-9.63,17.1-9.33" transform="translate(-37.62 -29.44)"/><circle class="cls-42" cx="49.22" cy="796.29" r="4.94"/><circle class="cls-43" cx="49.22" cy="815.41" r="4.94"/><circle class="cls-44" cx="32.13" cy="805.54" r="4.94"/><path class="cls-45" d="M672.68,216.4l-1.09,1.25v8.8l1.25,1.09,7.63.08,1.09-1.25v-8.8l-1.24-1.09Z" transform="translate(-37.62 -29.44)"/><path class="cls-46" d="M658,210.18a.81.81,0,0,0-1.17.07l-.08,16.44,1.25,1.09,7-.47c1.16-.08,1.16-.08,1.71-.7l-.47-15.81c.55-.62-.08-1.17-1.24-1.09Z" transform="translate(-37.62 -29.44)"/><path class="cls-47" d="M643.29,202.78c-1.17.08-1.17.08-1.1,1.24l.32,22.28a.81.81,0,0,0,.07,1.17l7.64.08c1.17-.08,1.17-.08,1.09-1.25l.23-22.9-.62-.54Z" transform="translate(-37.62 -29.44)"/><path class="cls-48" d="M372.83,709.52a3.87,3.87,0,0,0-2.79,3.19l.09,19.2a2.58,2.58,0,0,0,2.55,2.23l30,.38a2.57,2.57,0,0,0,2.23-2.55l-.08-19.2a2.09,2.09,0,0,0-2-2.86Z" transform="translate(-37.62 -29.44)"/><path class="cls-49" d="M375.44,714.54l12.17,10.51,12.17-10.51" transform="translate(-37.62 -29.44)"/><circle class="cls-50" cx="109.61" cy="865.38" r="22.05"/><path class="cls-51" d="M134.55,894.71A12.68,12.68,0,1,0,147.23,882a12.68,12.68,0,0,0-12.68,12.67" transform="translate(-37.62 -29.44)"/><circle class="cls-52" cx="109.61" cy="865.38" r="4.68"/><path class="cls-53" d="M147.23,894.71,126.53,874" transform="translate(-37.62 -29.44)"/><path class="cls-54" d="M126.12,867.43l.42,6.26-.48.55-6.33-.62h0l4,4.45.56.49,6.82.06h0l-.49-7.3-4-4.45h0Z" transform="translate(-37.62 -29.44)"/><path class="cls-55" d="M231.75,856.7c-2.18-.28-3.79,1.55-4.07,3.73l-.29,8.66.58,8.61a1.31,1.31,0,0,0,2.24,1.14l3.09-5.39a2.17,2.17,0,0,1,1.27-.52l12.5-.4a3.23,3.23,0,0,0,3.67-3.28l.28-8.66c-.17-2.58-2-4.18-3.73-4.07Z" transform="translate(-37.62 -29.44)"/><path class="cls-56" d="M233.31,862.18h12" transform="translate(-37.62 -29.44)"/><path class="cls-56" d="M233.31,864.75h12" transform="translate(-37.62 -29.44)"/><path class="cls-56" d="M233.31,867.32h12" transform="translate(-37.62 -29.44)"/><path class="cls-57" d="M249.33,869a4.24,4.24,0,0,0-4,3.78l.2,9c-.25,2,1.4,3.42,3.37,3.68l12.49,0A2,2,0,0,1,263,886l3.06,4.87c.46,1.14,2.38.62,2.69-.57V872.74c-.52-1.91-1.81-3.78-4.14-3.62Z" transform="translate(-37.62 -29.44)"/><path class="cls-56" d="M262.83,874.62h-12" transform="translate(-37.62 -29.44)"/><path class="cls-56" d="M262.83,877.19h-12" transform="translate(-37.62 -29.44)"/><path class="cls-56" d="M262.83,879.76h-12" transform="translate(-37.62 -29.44)"/></g></g></svg>