<?xml version="1.0" encoding="UTF-8" standalone="no"?>
<!DOCTYPE svg PUBLIC "-//W3C//DTD SVG 1.1//EN" "http://www.w3.org/Graphics/SVG/1.1/DTD/svg11.dtd">
<svg width="100%" height="100%" viewBox="0 0 1077 1077" version="1.1" xmlns="http://www.w3.org/2000/svg" xmlns:xlink="http://www.w3.org/1999/xlink" xml:space="preserve" xmlns:serif="http://www.serif.com/" style="fill-rule:evenodd;clip-rule:evenodd;stroke-linejoin:round;stroke-miterlimit:2;">
    <g transform="matrix(1,0,0,1,-5168,-6733)">
        <g transform="matrix(4.16667,0,0,4.16667,0,0)">
            <path d="M1325.46,1869.35C1315.47,1869.35 1306.82,1862.42 1304.67,1852.64L1288.93,1780.22L1286.57,1769.27L1330.08,1769.27L1332.5,1780.22L1335.78,1795.21L1342.6,1826.64L1346.25,1843.56C1349.16,1856.83 1339.06,1869.35 1325.46,1869.35Z" style="fill:rgb(244,142,158);fill-rule:nonzero;"/>
            <path d="M1325.46,1869.35C1315.47,1869.35 1306.82,1862.42 1304.67,1852.64L1302.05,1840.58L1305.62,1840.58C1308.74,1848.71 1316.55,1854.25 1325.46,1854.25C1334.74,1854.25 1342.32,1848.45 1345.3,1840.58L1345.6,1840.58L1346.25,1843.56C1346.59,1845.12 1346.76,1846.66 1346.75,1848.18C1346.74,1859.59 1337.46,1869.35 1325.46,1869.35Z" style="fill:rgb(229,128,143);fill-rule:nonzero;"/>
            <path d="M1343.88,1684.65L1343.88,1769.29L1279.85,1769.29C1275.3,1769.29 1271.61,1765.6 1271.61,1761.05L1271.61,1692.89C1271.61,1688.34 1275.3,1684.65 1279.85,1684.65L1343.88,1684.65Z" style="fill:rgb(226,118,121);fill-rule:nonzero;"/>
            <path d="M1271.64,1706.68L1271.64,1695.56L1271.64,1692.88C1271.64,1688.36 1275.29,1684.66 1279.86,1684.66L1343.88,1684.66L1343.88,1701.74L1279.86,1701.74C1275.29,1701.74 1271.64,1703.94 1271.64,1706.68Z" style="fill:rgb(239,173,175);fill-rule:nonzero;"/>
            <path d="M1343.88,1769.27L1279.86,1769.27C1275.29,1769.27 1271.64,1765.61 1271.64,1761.05L1271.64,1758.36L1271.64,1747.29C1271.64,1749.98 1275.29,1752.18 1279.86,1752.18L1343.88,1752.18L1343.88,1769.27Z" style="fill:rgb(206,106,110);fill-rule:nonzero;"/>
            <path d="M1332.5,1780.22L1288.93,1780.22L1286.58,1769.29L1330.09,1769.29L1332.5,1780.22Z" style="fill:rgb(229,128,143);fill-rule:nonzero;"/>
            <path d="M1330.09,1769.29L1286.58,1769.29L1286.57,1769.27L1330.08,1769.27L1330.09,1769.29Z" style="fill:rgb(206,106,110);fill-rule:nonzero;"/>
            <path d="M1252.71,1702.61L1252.71,1751.34C1252.71,1755.22 1255.86,1758.38 1259.75,1758.38L1271.61,1758.38L1271.61,1695.57L1259.75,1695.57C1255.86,1695.57 1252.71,1698.72 1252.71,1702.61Z" style="fill:rgb(203,210,233);fill-rule:nonzero;"/>
            <path d="M1256.33,1696.45C1257.34,1695.89 1258.51,1695.56 1259.76,1695.56L1271.61,1695.56L1271.61,1695.57L1259.75,1695.57C1258.51,1695.57 1257.34,1695.89 1256.33,1696.45Z" style="fill:white;fill-rule:nonzero;"/>
            <path d="M1271.64,1710.23L1271.61,1710.23L1271.61,1695.57L1271.61,1695.56L1271.64,1695.56L1271.64,1710.23Z" style="fill:rgb(239,173,175);fill-rule:nonzero;"/>
            <path d="M1252.73,1713.99L1252.73,1702.6C1252.73,1699.97 1254.17,1697.66 1256.33,1696.45C1257.34,1695.89 1258.51,1695.57 1259.75,1695.57L1271.61,1695.57L1271.61,1710.23L1259.76,1710.23C1255.84,1710.23 1252.73,1711.89 1252.73,1713.99Z" style="fill:rgb(223,227,241);fill-rule:nonzero;"/>
            <path d="M1271.64,1758.36L1271.61,1758.36L1271.61,1743.75L1271.64,1743.75L1271.64,1758.36Z" style="fill:rgb(206,106,110);fill-rule:nonzero;"/>
            <path d="M1271.61,1758.36L1259.76,1758.36C1255.84,1758.36 1252.73,1755.24 1252.73,1751.32L1252.73,1739.99C1252.73,1742.03 1255.84,1743.75 1259.76,1743.75L1271.61,1743.75L1271.61,1758.36Z" style="fill:rgb(182,189,208);fill-rule:nonzero;"/>
            <path d="M1467.14,1634.81L1467.14,1819.13C1467.14,1828.8 1456.65,1834.84 1448.29,1829.97L1343.88,1769.29L1343.88,1684.65L1448.29,1623.97C1456.65,1619.11 1467.14,1625.14 1467.14,1634.81Z" style="fill:rgb(203,210,233);fill-rule:nonzero;"/>
            <path d="M1448.29,1623.97L1438.87,1629.44L1438.87,1824.5L1448.29,1829.97C1456.65,1834.83 1467.14,1828.8 1467.14,1819.13L1467.14,1634.81C1467.14,1625.14 1456.65,1619.11 1448.29,1623.97Z" style="fill:rgb(151,189,228);fill-rule:nonzero;"/>
            <path d="M1374.59,1666.8L1448.27,1623.95C1450.3,1622.78 1452.45,1622.25 1454.55,1622.25C1455.17,1622.25 1455.78,1622.29 1456.39,1622.38C1455.79,1622.3 1455.18,1622.25 1454.57,1622.25C1453.07,1622.25 1451.55,1622.52 1450.06,1623.11C1449.46,1623.34 1448.87,1623.63 1448.29,1623.97L1442.69,1627.22L1438.87,1629.44L1374.59,1666.8Z" style="fill:white;fill-rule:nonzero;"/>
            <path d="M1343.89,1696.64L1343.89,1684.66L1374.59,1666.8L1438.87,1629.44L1438.87,1657.09L1343.89,1696.64ZM1442.69,1627.22L1448.29,1623.97C1448.87,1623.63 1449.46,1623.34 1450.06,1623.11C1449.46,1623.34 1448.87,1623.63 1448.29,1623.97L1442.69,1627.22Z" style="fill:rgb(223,227,241);fill-rule:nonzero;"/>
            <path d="M1467.12,1660.91C1467.12,1655.67 1461.13,1651.94 1454.59,1651.94C1452.48,1651.94 1450.31,1652.32 1448.27,1653.18L1438.87,1657.09L1438.87,1629.44L1442.69,1627.22L1448.29,1623.97C1448.87,1623.63 1449.46,1623.34 1450.06,1623.11C1451.55,1622.52 1453.07,1622.25 1454.57,1622.25C1455.18,1622.25 1455.79,1622.3 1456.39,1622.38C1462.19,1623.25 1467.12,1628.17 1467.12,1634.8L1467.12,1660.91Z" style="fill:rgb(191,216,240);fill-rule:nonzero;"/>
            <path d="M1454.56,1831.7C1452.46,1831.7 1450.3,1831.16 1448.27,1829.97L1431.72,1820.35L1448.29,1829.97C1450.32,1831.15 1452.47,1831.69 1454.57,1831.69C1456.07,1831.69 1457.54,1831.42 1458.92,1830.91C1457.54,1831.42 1456.07,1831.7 1454.56,1831.7Z" style="fill:rgb(229,229,229);fill-rule:nonzero;"/>
            <path d="M1454.57,1831.69C1452.47,1831.69 1450.32,1831.15 1448.29,1829.97L1431.72,1820.35L1343.89,1769.27L1343.89,1757.29L1438.87,1796.88L1438.87,1824.5L1448.29,1829.97C1450.32,1831.15 1452.47,1831.69 1454.57,1831.69C1456.11,1831.69 1457.61,1831.4 1459.02,1830.87C1458.98,1830.88 1458.95,1830.9 1458.92,1830.91C1457.54,1831.42 1456.07,1831.69 1454.57,1831.69Z" style="fill:rgb(182,189,208);fill-rule:nonzero;"/>
            <path d="M1454.57,1831.69C1452.47,1831.69 1450.32,1831.15 1448.29,1829.97L1438.87,1824.5L1438.87,1796.88L1448.27,1800.8C1450.3,1801.65 1452.45,1802.03 1454.55,1802.03C1461.11,1802.03 1467.12,1798.26 1467.12,1793.01L1467.12,1819.12C1467.12,1824.72 1463.61,1829.12 1459.02,1830.87C1457.61,1831.4 1456.11,1831.69 1454.57,1831.69Z" style="fill:rgb(130,171,218);fill-rule:nonzero;"/>
            <path d="M1467.14,1686.44L1467.14,1767.5C1482.23,1760.24 1492.68,1744.85 1492.68,1726.97C1492.68,1709.09 1482.23,1693.71 1467.14,1686.44Z" style="fill:rgb(234,157,59);fill-rule:nonzero;"/>
            <rect x="1467.12" y="1747.24" width="0.02" height="20.25" style="fill:rgb(130,171,218);fill-rule:nonzero;"/>
            <path d="M1486.32,1750.01C1490.23,1743.48 1492.53,1735.88 1492.67,1727.74C1492.69,1727.49 1492.69,1727.24 1492.69,1726.99C1492.69,1735.4 1490.36,1743.28 1486.32,1750.01Z" style="fill:rgb(229,229,229);fill-rule:nonzero;"/>
            <path d="M1467.14,1767.49L1467.14,1747.24C1481.8,1743.74 1492.1,1736.33 1492.67,1727.74C1492.53,1735.88 1490.23,1743.48 1486.32,1750.01C1481.79,1757.55 1475.11,1763.65 1467.14,1767.49Z" style="fill:rgb(210,142,53);fill-rule:nonzero;"/>
            <path d="M1492.69,1726.99C1492.69,1726.74 1492.69,1726.49 1492.67,1726.25C1492.39,1708.68 1482.03,1693.61 1467.14,1686.44L1467.14,1706.69L1467.14,1686.44C1482.23,1693.69 1492.69,1709.1 1492.69,1726.99Z" style="fill:white;fill-rule:nonzero;"/>
            <path d="M1467.14,1706.69C1467.13,1706.68 1467.13,1706.68 1467.12,1706.68L1467.12,1686.43C1467.13,1686.43 1467.13,1686.43 1467.14,1686.44L1467.14,1706.69Z" style="fill:rgb(191,216,240);fill-rule:nonzero;"/>
            <path d="M1492.67,1726.25C1492.11,1717.6 1481.81,1710.24 1467.14,1706.69L1467.14,1686.44C1482.03,1693.61 1492.39,1708.68 1492.67,1726.25Z" style="fill:rgb(243,196,137);fill-rule:nonzero;"/>
            <path d="M1342.58,1826.63C1341.7,1826.79 1340.77,1826.89 1339.83,1826.89C1330.89,1826.89 1323.66,1819.72 1323.66,1810.77C1323.66,1803.29 1328.81,1797 1335.77,1795.23L1342.58,1826.63Z" style="fill:rgb(155,171,198);fill-rule:nonzero;"/>
            <path d="M1472.5,1757.81L1472.5,1696.13C1481.79,1703.55 1487.33,1714.72 1487.33,1726.97C1487.33,1739.22 1481.79,1750.39 1472.5,1757.81ZM1461.76,1819.15C1461.76,1825.06 1455.2,1827.8 1451.01,1825.33L1444.24,1821.41L1444.24,1632.53L1451.01,1628.61C1455.25,1626.14 1461.76,1628.77 1461.76,1634.84L1461.76,1819.15ZM1433.5,1815.18L1349.26,1766.19L1349.26,1687.75L1433.5,1638.76L1433.5,1815.18ZM1338.52,1763.93L1279.86,1763.93L1279.7,1763.93C1278.14,1763.82 1277.01,1762.59 1277.01,1761.03L1277.01,1692.91C1277.01,1691.3 1278.25,1690.01 1279.86,1690.01L1338.52,1690.01L1338.52,1763.93ZM1332.02,1803.36C1332.13,1803.9 1335.57,1819.69 1335.83,1820.77C1328.69,1817.92 1326.76,1808.84 1332.02,1803.36ZM1338.31,1832.1L1341.05,1844.72C1343.14,1854.61 1335.62,1864.01 1325.47,1864.01C1317.95,1864.01 1311.55,1858.85 1309.94,1851.49L1293.23,1774.67L1325.79,1774.67L1329.55,1792.03C1322.78,1795.68 1318.27,1802.77 1318.27,1810.77C1318.27,1822.11 1327.13,1831.29 1338.31,1832.1ZM1266.27,1753.02L1259.77,1753.02C1258.85,1753.02 1258.1,1752.27 1258.1,1751.36L1258.1,1702.58C1258.1,1701.67 1258.85,1700.92 1259.77,1700.92L1266.27,1700.92L1266.27,1753.02ZM1472.5,1683.35L1472.5,1634.84C1472.5,1624.9 1464.44,1616.9 1454.56,1616.9C1451.44,1616.9 1448.32,1617.7 1445.59,1619.31C1419.48,1634.52 1357.65,1670.46 1342.44,1679.27L1279.86,1679.27C1273.25,1679.27 1267.77,1683.99 1266.54,1690.17L1259.77,1690.17C1252.89,1690.17 1247.36,1695.76 1247.36,1702.58L1247.36,1751.36C1247.36,1758.18 1252.89,1763.77 1259.77,1763.77L1266.54,1763.77C1267.77,1769.95 1273.25,1774.67 1279.86,1774.67L1282.28,1774.67L1299.41,1853.75C1302.15,1866.1 1312.84,1874.75 1325.47,1874.75C1342.44,1874.75 1355.12,1859.07 1351.52,1842.41C1351.52,1842.41 1351.52,1842.31 1351.41,1841.88L1351.41,1841.82L1351.36,1841.72L1351.31,1841.45C1351.25,1841.13 1351.2,1840.86 1351.15,1840.64C1351.09,1840.53 1351.09,1840.37 1351.04,1840.21C1350.93,1839.73 1350.93,1839.57 1350.93,1839.57C1349.64,1833.71 1346.04,1817.06 1336.8,1774.67L1342.44,1774.67C1356.03,1782.57 1420.98,1820.34 1445.59,1834.63C1457.73,1841.66 1472.5,1832.58 1472.5,1819.15L1472.5,1770.59C1488.29,1761.62 1498.07,1745.29 1498.07,1726.97C1498.07,1708.65 1488.29,1692.32 1472.5,1683.35Z" style="fill:rgb(40,59,102);fill-rule:nonzero;"/>
        </g>
    </g>
</svg>
