<?xml version="1.0" encoding="UTF-8" standalone="no"?>
<!DOCTYPE svg PUBLIC "-//W3C//DTD SVG 1.1//EN" "http://www.w3.org/Graphics/SVG/1.1/DTD/svg11.dtd">
<svg width="100%" height="100%" viewBox="0 0 1090 1090" version="1.1" xmlns="http://www.w3.org/2000/svg" xmlns:xlink="http://www.w3.org/1999/xlink" xml:space="preserve" xmlns:serif="http://www.serif.com/" style="fill-rule:evenodd;clip-rule:evenodd;stroke-linejoin:round;stroke-miterlimit:2;">
    <g transform="matrix(1,0,0,1,-5155,-3621)">
        <g transform="matrix(4.16667,0,0,4.16667,0,0)">
            <path d="M1404.7,1117.89C1400.56,1121.65 1395.14,1123.53 1389.55,1123.53L1298.82,1123.53C1293.28,1123.53 1287.8,1121.6 1283.67,1117.84C1265.19,1101.29 1253.53,1077.28 1253.53,1050.53C1253.53,1043.01 1254.44,1035.75 1256.16,1028.77C1262.45,1003.31 1279.48,982.087 1302.15,970.214C1305.16,968.603 1306.98,965.38 1306.98,961.995L1306.98,908.221L1381.39,908.221L1381.39,962.102C1381.39,965.541 1383.21,968.71 1386.22,970.322C1411.84,983.859 1430.54,1009.43 1434.14,1039.41C1434.3,1040.16 1434.41,1040.91 1434.46,1041.72C1437.25,1072.01 1425.17,1099.52 1404.7,1117.89Z" style="fill:rgb(234,244,252);fill-rule:nonzero;"/>
            <rect x="1306.98" y="908.224" width="74.41" height="10.043" style="fill:rgb(209,219,230);fill-rule:nonzero;"/>
            <rect x="1294.93" y="876.4" width="98.53" height="31.824" style="fill:rgb(155,171,198);fill-rule:nonzero;"/>
            <rect x="1294.93" y="876.4" width="98.53" height="10.058" style="fill:rgb(195,203,221);fill-rule:nonzero;"/>
            <rect x="1294.93" y="898.164" width="98.53" height="10.057" style="fill:rgb(138,153,178);fill-rule:nonzero;"/>
            <path d="M1404.7,1117.89C1400.56,1121.65 1395.14,1123.53 1389.55,1123.53L1298.82,1123.53C1293.28,1123.53 1287.8,1121.6 1283.67,1117.84C1265.19,1101.29 1253.53,1077.28 1253.53,1050.53C1253.53,1043.01 1254.44,1035.75 1256.16,1028.77C1276.52,1026.89 1304.73,1029.9 1331.64,1051.49C1361.08,1075.08 1403.84,1057.78 1434.14,1039.41C1434.3,1040.16 1434.41,1040.91 1434.46,1041.72C1437.25,1072.01 1425.17,1099.52 1404.7,1117.89Z" style="fill:rgb(226,118,121);fill-rule:nonzero;"/>
            <path d="M1253.53,1050.53L1253.53,1050.38L1253.53,1050.53ZM1434.46,1041.72C1434.45,1041.58 1434.44,1041.44 1434.43,1041.31C1434.46,1041.44 1434.46,1041.58 1434.46,1041.72Z" style="fill:rgb(229,229,229);fill-rule:nonzero;"/>
            <path d="M1389.55,1123.53L1298.82,1123.53C1293.28,1123.53 1287.8,1121.6 1283.67,1117.84C1265.19,1101.29 1253.53,1077.28 1253.53,1050.53L1253.53,1050.38C1253.54,1047.47 1253.7,1044.57 1254.01,1041.77C1256.27,1064.87 1267.28,1085.34 1283.67,1100C1287.8,1103.76 1293.28,1105.7 1298.82,1105.7L1389.55,1105.7C1395.14,1105.7 1400.56,1103.82 1404.7,1100.06C1421.14,1085.28 1432.2,1064.55 1434.41,1041.23C1434.42,1041.26 1434.42,1041.28 1434.43,1041.31C1434.44,1041.44 1434.45,1041.58 1434.46,1041.72C1434.73,1044.62 1434.86,1047.49 1434.86,1050.33C1434.86,1077.2 1423.21,1101.28 1404.7,1117.89C1400.56,1121.65 1395.14,1123.53 1389.55,1123.53Z" style="fill:rgb(206,106,110);fill-rule:nonzero;"/>
            <path d="M1354.07,991.268C1354.07,996.988 1349.45,1001.61 1343.73,1001.61C1338.05,1001.61 1333.42,996.988 1333.42,991.268C1333.42,985.549 1338.05,980.926 1343.73,980.926C1349.45,980.926 1354.07,985.549 1354.07,991.268Z" style="fill:rgb(226,118,121);fill-rule:nonzero;"/>
            <path d="M1313.81,1088.7C1313.81,1094.42 1309.19,1099.04 1303.47,1099.04C1297.79,1099.04 1293.17,1094.42 1293.17,1088.7C1293.17,1082.98 1297.79,1078.36 1303.47,1078.36C1309.19,1078.36 1313.81,1082.98 1313.81,1088.7Z" style="fill:rgb(215,141,162);fill-rule:nonzero;"/>
            <path d="M1401.5,1080.53C1401.5,1086.25 1396.88,1090.87 1391.16,1090.87C1385.48,1090.87 1380.86,1086.25 1380.86,1080.53C1380.86,1074.81 1385.48,1070.19 1391.16,1070.19C1396.88,1070.19 1401.5,1074.81 1401.5,1080.53Z" style="fill:rgb(215,141,162);fill-rule:nonzero;"/>
            <path d="M1367.47,944.575C1367.47,950.295 1362.85,954.917 1357.13,954.917C1351.45,954.917 1346.83,950.295 1346.83,944.575C1346.83,938.855 1351.45,934.232 1357.13,934.232C1362.85,934.232 1367.47,938.855 1367.47,944.575Z" style="fill:rgb(226,118,121);fill-rule:nonzero;"/>
            <path d="M1491.88,968.713C1491.88,1001.61 1465.24,1028.3 1432.29,1028.3C1399.4,1028.3 1372.76,1001.61 1372.76,968.713C1372.76,935.816 1399.4,909.128 1432.29,909.128C1465.24,909.128 1491.88,935.816 1491.88,968.713Z" style="fill:rgb(234,157,59);fill-rule:nonzero;"/>
            <path d="M1491.19,977.95C1491.19,977.94 1491.19,977.928 1491.18,977.918C1491.23,977.598 1491.28,977.276 1491.32,976.955C1491.28,977.288 1491.24,977.62 1491.19,977.95Z" style="fill:white;fill-rule:nonzero;"/>
            <path d="M1373.43,977.95C1373.39,977.606 1373.34,977.261 1373.29,976.915C1373.34,977.25 1373.39,977.583 1373.44,977.916C1373.44,977.928 1373.44,977.938 1373.43,977.95ZM1372.74,968.716L1372.74,968.581L1372.74,968.716Z" style="fill:rgb(244,249,253);fill-rule:nonzero;"/>
            <path d="M1491.89,968.716L1491.89,968.583L1491.89,968.716Z" style="fill:white;fill-rule:nonzero;"/>
            <path d="M1372.74,968.57L1372.74,968.453L1372.74,968.57Z" style="fill:rgb(244,249,253);fill-rule:nonzero;"/>
            <path d="M1491.89,968.568L1491.89,968.458L1491.89,968.568ZM1381.39,937.8L1381.39,937.779C1384.85,932.094 1389.23,927.031 1394.34,922.804C1389.23,927.036 1384.84,932.105 1381.39,937.8Z" style="fill:white;fill-rule:nonzero;"/>
            <path d="M1373.45,959.618C1373.44,959.595 1373.44,959.573 1373.44,959.55C1374.65,951.679 1377.41,944.318 1381.39,937.779L1381.39,937.8C1377.41,944.351 1374.65,951.731 1373.45,959.618Z" style="fill:rgb(244,249,253);fill-rule:nonzero;"/>
            <path d="M1491.18,959.575C1489.64,949.526 1485.58,940.302 1479.68,932.569C1485.58,940.297 1489.64,949.509 1491.19,959.549C1491.19,959.557 1491.18,959.566 1491.18,959.575Z" style="fill:white;fill-rule:nonzero;"/>
            <path d="M1375.63,968.711C1374.67,965.774 1373.94,962.734 1373.45,959.618C1374.65,951.731 1377.41,944.351 1381.39,937.8C1384.84,932.105 1389.23,927.036 1394.34,922.804C1404.64,914.268 1417.87,909.135 1432.31,909.135C1451.64,909.135 1468.8,918.329 1479.68,932.569C1485.58,940.302 1489.64,949.526 1491.18,959.575C1490.69,962.707 1489.95,965.759 1488.99,968.711C1481.24,944.837 1458.81,927.561 1432.31,927.561C1405.81,927.561 1383.38,944.837 1375.63,968.711Z" style="fill:rgb(243,196,137);fill-rule:nonzero;"/>
            <path d="M1432.31,1028.3L1432.3,1028.3C1462.12,1028.29 1486.77,1006.42 1491.18,977.882L1491.18,977.918C1486.77,1006.47 1462.12,1028.3 1432.31,1028.3Z" style="fill:rgb(229,229,229);fill-rule:nonzero;"/>
            <path d="M1421.15,1027.26C1396.53,1022.6 1377.29,1002.82 1373.44,977.916C1373.44,977.892 1373.45,977.863 1373.45,977.838C1377.28,1002.75 1396.52,1022.59 1421.15,1027.26Z" style="fill:rgb(209,219,230);fill-rule:nonzero;"/>
            <path d="M1491.32,976.955C1491.42,976.183 1491.51,975.404 1491.59,974.621C1491.63,974.17 1491.67,973.721 1491.71,973.268C1491.82,971.759 1491.89,970.238 1491.89,968.716L1491.89,968.723C1491.89,971.517 1491.7,974.264 1491.32,976.955Z" style="fill:rgb(229,229,229);fill-rule:nonzero;"/>
            <path d="M1373.29,976.915C1372.93,974.237 1372.74,971.503 1372.74,968.723L1372.74,968.716C1372.74,971.474 1372.95,974.232 1373.29,976.915Z" style="fill:rgb(209,219,230);fill-rule:nonzero;"/>
            <path d="M1491.89,968.583L1491.89,968.568L1491.89,968.583Z" style="fill:rgb(229,229,229);fill-rule:nonzero;"/>
            <path d="M1372.74,968.581L1372.74,968.57L1372.74,968.581Z" style="fill:rgb(209,219,230);fill-rule:nonzero;"/>
            <path d="M1491.89,968.458C1491.87,965.431 1491.64,962.454 1491.19,959.549L1491.19,959.537C1491.66,962.46 1491.88,965.433 1491.89,968.458Z" style="fill:rgb(229,229,229);fill-rule:nonzero;"/>
            <path d="M1372.74,968.453C1372.75,965.43 1372.97,962.458 1373.43,959.537C1373.44,959.542 1373.44,959.545 1373.44,959.55C1372.99,962.453 1372.75,965.428 1372.74,968.453Z" style="fill:rgb(209,219,230);fill-rule:nonzero;"/>
            <path d="M1432.3,1028.3C1428.49,1028.3 1424.76,1027.94 1421.15,1027.26C1396.52,1022.59 1377.28,1002.75 1373.45,977.838C1373.94,974.708 1374.67,971.66 1375.63,968.711C1383.4,992.573 1405.84,1009.87 1432.31,1009.87C1458.78,1009.87 1481.22,992.573 1488.99,968.711C1489.95,971.673 1490.69,974.737 1491.18,977.882C1486.77,1006.42 1462.12,1028.29 1432.3,1028.3ZM1491.59,974.621C1491.63,974.171 1491.67,973.72 1491.71,973.268C1491.67,973.721 1491.63,974.17 1491.59,974.621Z" style="fill:rgb(210,142,53);fill-rule:nonzero;"/>
            <path d="M1491.18,977.918L1491.18,977.882C1491.34,976.804 1491.48,975.717 1491.59,974.621C1491.51,975.404 1491.42,976.183 1491.32,976.955C1491.28,977.276 1491.23,977.598 1491.18,977.918Z" style="fill:rgb(229,229,229);fill-rule:nonzero;"/>
            <path d="M1373.44,977.916C1373.39,977.583 1373.34,977.25 1373.29,976.915C1372.95,974.232 1372.74,971.474 1372.74,968.716L1372.74,968.453C1372.75,965.428 1372.99,962.453 1373.44,959.55C1373.44,959.573 1373.44,959.595 1373.45,959.618C1372.99,962.583 1372.76,965.621 1372.76,968.713C1372.76,971.815 1373,974.864 1373.45,977.838C1373.45,977.863 1373.44,977.892 1373.44,977.916Z" style="fill:rgb(218,224,230);fill-rule:nonzero;"/>
            <path d="M1491.71,973.268C1491.82,971.765 1491.88,970.245 1491.88,968.713C1491.88,965.605 1491.64,962.555 1491.18,959.575C1491.18,959.566 1491.19,959.557 1491.19,959.549C1491.64,962.454 1491.87,965.431 1491.89,968.458L1491.89,968.716C1491.89,970.238 1491.82,971.759 1491.71,973.268Z" style="fill:rgb(229,229,229);fill-rule:nonzero;"/>
            <path d="M1491.18,977.882C1490.69,974.737 1489.95,971.673 1488.99,968.711C1489.95,965.759 1490.69,962.707 1491.18,959.575C1491.64,962.555 1491.88,965.605 1491.88,968.713C1491.88,970.245 1491.82,971.765 1491.71,973.268C1491.67,973.72 1491.63,974.171 1491.59,974.621C1491.48,975.717 1491.34,976.804 1491.18,977.882ZM1373.45,977.838C1373,974.864 1372.76,971.815 1372.76,968.713C1372.76,965.621 1372.99,962.583 1373.45,959.618C1373.94,962.734 1374.67,965.774 1375.63,968.711C1374.67,971.66 1373.94,974.708 1373.45,977.838Z" style="fill:rgb(217,176,124);fill-rule:nonzero;"/>
            <path d="M1436.08,1022.77C1406.81,1025.3 1378.76,1001.77 1378.12,969.805L1378.12,968.731C1378.12,938.809 1402.4,914.474 1432.27,914.474C1462.19,914.474 1486.53,938.809 1486.53,968.731C1486.53,997.31 1464.23,1020.84 1436.08,1022.77ZM1429.42,1048.99C1429.48,1051.73 1429.42,1054.47 1429.21,1057.15C1429.15,1057.53 1429.15,1057.91 1429.1,1058.28C1427.11,1080.31 1416.8,1099.81 1401.11,1113.94C1398.05,1116.68 1393.97,1118.18 1389.56,1118.18L1298.83,1118.18C1281.37,1118.18 1251.82,1077.89 1260.58,1033.84C1285.67,1032.44 1308.55,1039.86 1328.27,1055.7C1352.01,1074.67 1387.2,1072.03 1429.42,1048.4L1429.42,1048.99ZM1304.63,974.962C1309.41,972.491 1312.37,967.495 1312.37,961.962L1312.37,913.614L1376.02,913.614L1376.02,936.391C1370.49,945.9 1367.38,956.966 1367.38,968.731C1367.38,1002.95 1394.02,1031.15 1427.7,1033.46C1427.92,1034.48 1428.08,1035.56 1428.24,1036.58C1404.93,1050.28 1383.44,1057.58 1366.03,1057.58C1353.95,1057.58 1343.52,1054.09 1334.98,1047.32C1314.84,1031.15 1291.74,1022.93 1266.33,1022.93C1265.41,1022.93 1264.45,1023.04 1263.53,1023.04C1270.57,1002.47 1285.18,985.169 1304.63,974.962ZM1300.28,902.87L1300.28,881.758L1388.06,881.758L1388.06,902.87L1300.28,902.87ZM1497.27,968.731C1497.27,932.9 1468.1,903.729 1432.27,903.729C1414.54,903.729 1398.48,910.874 1386.77,922.424L1386.77,913.614L1393.43,913.614C1396.44,913.614 1398.8,911.197 1398.8,908.242L1398.8,876.386C1398.8,873.431 1396.44,871.014 1393.43,871.014L1294.91,871.014C1291.95,871.014 1289.53,873.431 1289.53,876.386L1289.53,908.242C1289.53,911.197 1291.95,913.614 1294.91,913.614L1301.62,913.614L1301.62,961.962C1301.62,963.466 1300.82,964.809 1299.63,965.454C1275.3,978.186 1257.63,1000.69 1251.02,1027.29C1251.02,1027.39 1250.96,1027.45 1250.96,1027.5C1246.4,1045.87 1247.26,1065.43 1254.62,1084.66C1261.92,1103.68 1278.36,1128.92 1298.83,1128.92L1389.56,1128.92C1396.65,1128.92 1403.31,1126.4 1408.31,1121.89C1432.7,1099.97 1444.73,1066.82 1438.66,1033.36C1471.54,1030.13 1497.27,1002.36 1497.27,968.731Z" style="fill:rgb(40,59,102);fill-rule:nonzero;"/>
            <path d="M1441.56,984.959C1443.02,983.761 1443.75,982.248 1443.75,980.419C1443.75,978.593 1443.18,977.143 1442.03,976.073C1440.88,975.002 1438.74,973.999 1435.61,973.059L1435.61,987.151C1438.11,986.893 1440.09,986.16 1441.56,984.959ZM1425.07,950.626C1423.74,951.798 1423.08,953.261 1423.08,955.01C1423.08,956.759 1423.6,958.142 1424.65,959.158C1425.69,960.178 1427.67,961.156 1430.6,962.096L1430.6,948.548C1428.25,948.759 1426.41,949.45 1425.07,950.626ZM1430.6,1001.17L1430.6,995.451C1423.44,994.721 1417.02,991.876 1411.33,986.918L1417.05,980.107C1421.43,983.917 1425.95,986.186 1430.6,986.918L1430.6,971.727C1424.7,970.319 1420.38,968.465 1417.64,966.167C1414.9,963.87 1413.53,960.464 1413.53,955.95C1413.53,951.435 1415.1,947.742 1418.26,944.868C1421.42,941.998 1425.53,940.433 1430.6,940.172L1430.6,936.257L1435.61,936.257L1435.61,940.249C1441.35,940.669 1446.78,942.625 1451.89,946.124L1446.8,953.328C1443.36,950.874 1439.63,949.361 1435.61,948.784L1435.61,963.504L1435.84,963.504C1441.84,964.915 1446.25,966.821 1449.07,969.22C1451.89,971.622 1453.3,975.108 1453.3,979.673C1453.3,984.242 1451.68,987.963 1448.45,990.831C1445.21,993.705 1440.93,995.269 1435.61,995.53L1435.61,1001.17L1430.6,1001.17Z" style="fill:white;fill-rule:nonzero;"/>
        </g>
    </g>
</svg>
