<?xml version="1.0" encoding="UTF-8" standalone="no"?>
<!DOCTYPE svg PUBLIC "-//W3C//DTD SVG 1.1//EN" "http://www.w3.org/Graphics/SVG/1.1/DTD/svg11.dtd">
<svg width="100%" height="100%" viewBox="0 0 1090 1090" version="1.1" xmlns="http://www.w3.org/2000/svg" xmlns:xlink="http://www.w3.org/1999/xlink" xml:space="preserve" xmlns:serif="http://www.serif.com/" style="fill-rule:evenodd;clip-rule:evenodd;stroke-linejoin:round;stroke-miterlimit:2;">
    <g transform="matrix(1,0,0,1,-2066,-2068)">
        <g transform="matrix(4.16667,0,0,4.16667,0,0)">
            <path d="M735.45,627.045C735.45,686.977 686.826,735.602 626.842,735.602C566.91,735.602 518.286,686.977 518.286,627.045C518.286,567.061 566.91,518.437 626.842,518.437C686.826,518.437 735.45,567.061 735.45,627.045Z" style="fill:rgb(226,118,121);fill-rule:nonzero;"/>
            <path d="M518.26,627.338C518.258,627.246 518.258,627.154 518.258,627.061L518.258,627.047C518.258,627.146 518.258,627.24 518.26,627.338ZM518.26,626.757C518.373,585.808 541.152,550.197 574.674,531.782C543.105,549.126 521.084,581.72 518.533,619.651C518.531,619.623 518.529,619.593 518.526,619.566C518.372,621.947 518.267,624.328 518.26,626.757Z" style="fill:white;fill-rule:nonzero;"/>
            <path d="M735.449,627.338C735.449,627.24 735.45,627.146 735.45,627.047L735.45,627.061C735.45,627.154 735.449,627.246 735.449,627.338ZM734.415,627.044C727.147,574.173 681.743,533.427 626.827,533.427C572.014,533.427 526.566,574.173 519.294,627.044C518.958,624.604 518.703,622.139 518.533,619.651C521.084,581.72 543.105,549.126 574.674,531.782C590.158,523.276 607.934,518.44 626.827,518.44C686.73,518.44 735.283,566.894 735.449,626.757C735.442,624.328 735.336,621.947 735.181,619.566C735.01,622.083 734.754,624.577 734.415,627.044Z" style="fill:rgb(239,173,175);fill-rule:nonzero;"/>
            <path d="M626.827,735.602C567.032,735.602 518.425,687.149 518.26,627.338C518.267,629.767 518.372,632.148 518.526,634.529C518.53,634.498 518.531,634.47 518.534,634.439C522.335,690.923 569.391,735.596 626.835,735.602L626.827,735.602ZM677.226,723.235C697.417,712.645 713.863,695.891 724.064,675.477C713.864,695.894 697.42,712.645 677.226,723.235ZM518.258,627.047L518.258,627.033C518.258,626.941 518.258,626.849 518.26,626.757C518.258,626.856 518.258,626.948 518.258,627.047Z" style="fill:rgb(229,229,229);fill-rule:nonzero;"/>
            <path d="M626.835,735.602C569.391,735.596 522.335,690.923 518.534,634.439C518.703,631.951 518.958,629.483 519.294,627.044C526.566,679.868 572.014,720.613 626.827,720.613C681.743,720.613 727.147,679.868 734.415,627.044C734.754,629.513 735.01,632.01 735.181,634.529C735.336,632.148 735.442,629.767 735.449,627.338C735.401,644.631 731.307,660.98 724.064,675.477C713.863,695.891 697.417,712.645 677.226,723.235C662.168,731.131 645.022,735.6 626.835,735.602ZM735.45,627.047C735.45,626.948 735.449,626.856 735.449,626.757C735.449,626.849 735.45,626.941 735.45,627.033L735.45,627.047Z" style="fill:rgb(206,106,110);fill-rule:nonzero;"/>
            <path d="M518.526,634.529C518.372,632.148 518.267,629.767 518.26,627.338C518.258,627.24 518.258,627.146 518.258,627.047C518.258,626.948 518.258,626.856 518.26,626.757C518.267,624.328 518.372,621.947 518.526,619.566C518.529,619.593 518.531,619.623 518.533,619.651C518.369,622.095 518.286,624.559 518.286,627.045C518.286,629.529 518.369,631.996 518.534,634.439C518.531,634.47 518.53,634.498 518.526,634.529Z" style="fill:rgb(229,229,229);fill-rule:nonzero;"/>
            <path d="M735.181,634.529C735.01,632.01 734.754,629.513 734.415,627.044C734.754,624.577 735.01,622.083 735.181,619.566C735.336,621.947 735.442,624.328 735.449,626.757C735.449,626.856 735.45,626.948 735.45,627.047C735.45,627.146 735.449,627.24 735.449,627.338C735.442,629.767 735.336,632.148 735.181,634.529ZM518.534,634.439C518.369,631.996 518.286,629.529 518.286,627.045C518.286,624.559 518.369,622.095 518.533,619.651C518.703,622.139 518.958,624.604 519.294,627.044C518.958,629.483 518.703,631.951 518.534,634.439Z" style="fill:rgb(215,155,158);fill-rule:nonzero;"/>
            <path d="M709.349,627.039C709.349,672.565 672.413,709.501 626.848,709.501C581.323,709.501 544.386,672.565 544.386,627.039C544.386,581.474 581.323,544.538 626.848,544.538C672.413,544.538 709.349,581.474 709.349,627.039Z" style="fill:rgb(234,244,252);fill-rule:nonzero;"/>
            <path d="M544.572,632.903C544.431,630.968 544.367,629.026 544.367,627.061L544.367,627.051C544.367,629.02 544.436,630.969 544.572,632.903ZM544.639,620.302C547.075,590.238 565.608,564.753 591.579,552.447C566.332,564.42 548.123,588.852 544.897,617.804C544.796,618.636 544.71,619.468 544.639,620.302ZM695.119,580.704C689.727,572.775 682.992,565.836 675.238,560.212C682.993,565.834 689.729,572.774 695.119,580.704Z" style="fill:rgb(239,173,175);fill-rule:nonzero;"/>
            <path d="M709.14,632.85C709.273,630.935 709.341,629 709.341,627.051L709.341,627.061C709.341,629.008 709.279,630.933 709.14,632.85ZM707.23,627.039C698.817,590.357 666.031,563.081 626.827,563.081C587.673,563.081 554.892,590.355 546.479,627.037C545.782,623.999 545.254,620.901 544.904,617.747C544.902,617.766 544.9,617.785 544.897,617.804C548.123,588.852 566.332,564.42 591.579,552.447C602.269,547.381 614.222,544.548 626.827,544.548C644.921,544.548 661.644,550.355 675.238,560.212C682.992,565.836 689.727,572.775 695.119,580.704C702.915,592.174 707.896,605.72 709.073,620.343C708.999,619.476 708.91,618.611 708.804,617.747C708.454,620.901 707.926,624.001 707.23,627.039Z" style="fill:rgb(244,249,253);fill-rule:nonzero;"/>
            <path d="M626.827,709.501C583.298,709.501 547.586,675.673 544.572,632.903C544.649,633.943 544.747,634.981 544.87,636.019C549.348,677.321 584.35,709.497 626.838,709.501L626.827,709.501ZM544.367,627.051L544.367,627.04C544.367,624.752 544.451,622.519 544.639,620.302C544.459,622.529 544.367,624.777 544.367,627.051Z" style="fill:rgb(206,106,110);fill-rule:nonzero;"/>
            <path d="M626.838,709.501C584.35,709.497 549.348,677.321 544.87,636.019C544.881,636.113 544.893,636.207 544.904,636.302C545.257,633.157 545.785,630.064 546.479,627.037C554.875,663.621 587.692,690.967 626.827,690.967C666.063,690.967 698.84,663.623 707.23,627.039C707.924,630.066 708.452,633.157 708.804,636.302C708.945,635.152 709.056,634.003 709.14,632.85C706.158,675.645 670.486,709.497 626.838,709.501ZM709.341,627.051C709.341,624.791 709.251,622.557 709.073,620.343C709.258,622.547 709.341,624.766 709.341,627.04L709.341,627.051Z" style="fill:rgb(209,219,230);fill-rule:nonzero;"/>
            <path d="M544.87,636.019C544.747,634.981 544.649,633.943 544.572,632.903C544.436,630.969 544.367,629.02 544.367,627.051C544.367,624.777 544.459,622.529 544.639,620.302C544.71,619.468 544.796,618.636 544.897,617.804C544.559,620.837 544.386,623.916 544.386,627.039C544.386,630.073 544.55,633.069 544.87,636.019Z" style="fill:rgb(215,155,158);fill-rule:nonzero;"/>
            <path d="M708.804,636.302C708.452,633.157 707.924,630.066 707.23,627.039C707.926,624.001 708.454,620.901 708.804,617.747C708.91,618.611 708.999,619.476 709.073,620.343C709.251,622.557 709.341,624.791 709.341,627.051C709.341,629 709.273,630.935 709.14,632.85C709.056,634.003 708.945,635.152 708.804,636.302ZM544.904,636.302C544.893,636.207 544.881,636.113 544.87,636.019C544.55,633.069 544.386,630.073 544.386,627.039C544.386,623.916 544.559,620.837 544.897,617.804C544.9,617.785 544.902,617.766 544.904,617.747C545.254,620.901 545.782,623.999 546.479,627.037C545.785,630.064 545.257,633.157 544.904,636.302Z" style="fill:rgb(218,224,230);fill-rule:nonzero;"/>
            <path d="M666.632,646.401L666.632,669.178L589.382,669.178L589.382,646.401C589.382,638.719 595.613,632.487 603.295,632.487L616.94,632.487L628.007,648.281L639.073,632.487L652.718,632.487C660.4,632.487 666.632,638.719 666.632,646.401Z" style="fill:rgb(135,205,176);fill-rule:nonzero;"/>
            <path d="M666.632,669.178L589.382,669.178L589.382,659.142L666.631,659.142L666.631,669.178" style="fill:rgb(115,197,163);fill-rule:nonzero;"/>
            <path d="M632.437,641.959L639.073,632.487L632.437,641.959ZM652.864,632.488L652.86,632.488L652.864,632.488ZM652.795,632.488L652.782,632.488L652.795,632.488Z" style="fill:rgb(244,249,253);fill-rule:nonzero;"/>
            <path d="M665.839,641.959L632.437,641.959L639.073,632.487L652.718,632.487C652.739,632.487 652.761,632.487 652.782,632.488L652.864,632.488C658.918,632.551 663.993,636.511 665.839,641.959Z" style="fill:rgb(183,223,206);fill-rule:nonzero;"/>
            <path d="M603.007,632.49L603.01,632.49L603.007,632.49ZM603.078,632.489L603.084,632.489L603.078,632.489ZM603.145,632.488L603.154,632.488L603.145,632.488ZM603.217,632.488L603.231,632.488L603.217,632.488ZM603.294,632.487L603.295,632.487L603.294,632.487Z" style="fill:rgb(244,249,253);fill-rule:nonzero;"/>
            <path d="M623.577,641.959L590.174,641.959C592.006,636.554 597.015,632.613 603.007,632.49L603.01,632.49C603.033,632.49 603.056,632.489 603.078,632.489L603.084,632.489C603.104,632.489 603.125,632.488 603.145,632.488L603.231,632.488C603.252,632.487 603.273,632.487 603.294,632.487L616.94,632.487L623.577,641.959Z" style="fill:rgb(183,223,206);fill-rule:nonzero;"/>
            <path d="M648.895,593.059C648.895,604.597 639.545,618.948 628.007,618.948C616.468,618.948 607.118,604.597 607.118,593.059C607.118,581.521 616.468,572.17 628.007,572.17C639.545,572.17 648.895,581.521 648.895,593.059Z" style="fill:rgb(135,205,176);fill-rule:nonzero;"/>
            <path d="M615.224,612.718C610.281,607.508 607.112,599.772 607.112,593.057C607.112,581.507 616.459,572.16 628.009,572.16C639.559,572.16 648.906,581.507 648.906,593.057C648.906,593.296 648.906,593.505 648.884,593.729C648.891,593.504 648.895,593.281 648.895,593.059C648.895,581.521 639.545,572.17 628.007,572.17C616.468,572.17 607.118,581.521 607.118,593.059C607.118,599.781 610.291,607.457 615.222,612.694C615.222,612.702 615.223,612.71 615.224,612.718Z" style="fill:rgb(209,219,230);fill-rule:nonzero;"/>
            <path d="M615.222,612.694C610.291,607.457 607.118,599.781 607.118,593.059C607.118,581.521 616.468,572.17 628.007,572.17C639.545,572.17 648.895,581.521 648.895,593.059C648.895,593.281 648.891,593.504 648.884,593.729C648.877,593.807 648.867,593.887 648.853,593.97C645.307,591.176 640.848,589.511 635.959,589.511C624.464,589.511 615.116,598.858 615.116,610.408C615.116,611.153 615.169,611.898 615.222,612.694Z" style="fill:rgb(115,197,163);fill-rule:nonzero;"/>
            <path d="M714.421,621.669C711.735,577.51 676.387,542.163 632.229,539.423L632.229,524.059C684.875,526.799 727.045,569.023 729.785,621.669L714.421,621.669ZM632.229,729.968L632.229,714.604C676.387,711.918 711.788,676.517 714.474,632.413L729.785,632.413C727.099,685.005 684.875,727.229 632.229,729.968ZM626.857,691.129C623.902,691.129 621.485,693.546 621.485,696.501L621.485,703.86C583.29,701.228 552.669,670.608 550.037,632.413L557.343,632.413C560.351,632.413 562.715,629.995 562.715,627.041C562.715,624.032 560.351,621.669 557.343,621.669L550.037,621.669C552.669,583.42 583.29,552.853 621.485,550.167L621.485,557.527C621.485,560.481 623.902,562.899 626.857,562.899C629.811,562.899 632.229,560.481 632.229,557.527L632.229,550.167C670.478,552.853 701.044,583.42 703.677,621.669L696.371,621.669C693.416,621.669 690.999,624.032 690.999,627.041C690.999,629.995 693.416,632.413 696.371,632.413L703.73,632.413C701.044,670.608 670.478,701.174 632.229,703.86L632.229,696.501C632.229,693.546 629.811,691.129 626.857,691.129ZM621.485,729.968C568.893,727.229 526.669,685.005 523.929,632.413L539.293,632.413C541.979,676.57 577.327,711.918 621.485,714.604L621.485,729.968ZM621.485,524.059L621.485,539.423C577.327,542.109 541.979,577.51 539.293,621.669L523.929,621.669C526.669,569.023 568.893,526.799 621.485,524.059ZM750.413,621.669L740.529,621.669C737.789,563.114 690.784,516.108 632.229,513.315L632.229,503.484C632.229,500.476 629.811,498.112 626.857,498.112C623.902,498.112 621.485,500.476 621.485,503.484L621.485,513.315C562.984,516.055 515.925,563.114 513.185,621.669L503.301,621.669C500.346,621.669 497.929,624.032 497.929,627.041C497.929,629.995 500.346,632.413 503.301,632.413L513.185,632.413C515.925,690.914 562.93,737.973 621.485,740.712L621.485,750.597C621.485,753.552 623.902,755.969 626.857,755.969C629.811,755.969 632.229,753.552 632.229,750.597L632.229,740.712C690.784,737.919 737.789,690.914 740.529,632.413L750.413,632.413C753.368,632.413 755.785,629.995 755.785,627.041C755.785,624.032 753.368,621.669 750.413,621.669Z" style="fill:rgb(40,59,102);fill-rule:nonzero;"/>
            <path d="M661.238,663.785L594.732,663.785L594.732,646.38C594.732,641.706 598.6,637.838 603.274,637.838L614.125,637.838L623.634,651.376C625.621,654.223 630.402,654.223 632.39,651.376L641.845,637.838L652.696,637.838C657.424,637.838 661.238,641.706 661.238,646.38L661.238,663.785ZM652.696,627.094L639.052,627.094C637.332,627.094 635.667,627.954 634.7,629.404L627.985,638.913L621.324,629.404C620.357,627.954 618.691,627.094 616.918,627.094L603.274,627.094C592.637,627.094 583.988,635.743 583.988,646.38L583.988,669.157C583.988,672.165 586.406,674.529 589.36,674.529L666.61,674.529C669.618,674.529 671.982,672.165 671.982,669.157L671.982,646.38C671.982,635.743 663.333,627.094 652.696,627.094Z" style="fill:rgb(40,59,102);fill-rule:nonzero;"/>
            <path d="M627.985,613.557C620.034,613.557 612.514,602.007 612.514,593.036C612.514,584.494 619.443,577.564 627.985,577.564C636.58,577.564 643.51,584.494 643.51,593.036C643.51,602.007 635.989,613.557 627.985,613.557ZM627.985,566.82C613.534,566.82 601.77,578.585 601.77,593.036C601.77,607.54 613.212,624.301 627.985,624.301C642.812,624.301 654.254,607.54 654.254,593.036C654.254,578.585 642.489,566.82 627.985,566.82Z" style="fill:rgb(40,59,102);fill-rule:nonzero;"/>
        </g>
    </g>
</svg>
