<svg xmlns="http://www.w3.org/2000/svg" xmlns:xlink="http://www.w3.org/1999/xlink" style="fill-rule:evenodd;clip-rule:evenodd;stroke-linejoin:round;stroke-miterlimit:2" width="100%" height="100%" version="1.1" viewBox="0 0 1067 1091" xml:space="preserve"><g><g transform="matrix(1,0,0,1,-1117,-2220) matrix(5.55556,0,0,5.55556,0,0)"><rect style="fill:#fff" width="6.583" height="595.276" x="195.155" y="0"/><rect style="fill:#fff" width="595.275" height="6.583" x="0" y="393.54"/><path style="fill:#00ace9" d="M295.735,494.16L295.814,449.235L292.177,455.535L276.049,483.469L276.042,483.465L259.907,511.412L256.258,517.732L295.735,494.16Z"/><path style="fill:#97c460" d="M321.403,483.467M321.407,483.465M337.543,511.412L321.403,483.467L305.272,455.535L301.634,449.235L301.555,494.16L341.191,517.732L337.543,511.412Z"/><path style="fill:#dfd738" d="M338.331,522.623L298.696,499.051L259.218,522.623L338.331,522.623Z"/><g><text style="font-family:'Montserrat-Black','Montserrat';font-weight:900;font-size:72.222px;fill:#333" x="1458.47" y="3081.78" transform="matrix(0.18,0,0,0.18,8.42291,5.9994)">Y<tspan x="1505.42" y="3081.78">o</tspan>riashi</text></g></g></g></svg>